<svg xmlns="http://www.w3.org/2000/svg" viewBox="0 0 1600 900" preserveAspectRatio="xMidYMid slice">
<defs>
 <linearGradient id="sky" x1="0" y1="0" x2="0" y2="1"><stop stop-color="#1768dc"/><stop offset=".38" stop-color="#50aff8"/><stop offset=".72" stop-color="#a9ddff"/><stop offset="1" stop-color="#d8c8ff"/></linearGradient>
 <radialGradient id="pink" cx="50%" cy="100%" r="70%"><stop stop-color="#ffb6e7" stop-opacity=".58"/><stop offset="1" stop-color="#ffb6e7" stop-opacity="0"/></radialGradient>
 <filter id="soft"><feGaussianBlur stdDeviation="9"/></filter>
</defs>
<rect width="1600" height="900" fill="url(#sky)"/><rect width="1600" height="900" fill="url(#pink)"/>
<g fill="#fff" opacity=".92">
 <circle cx="80" cy="78" r="3"/><circle cx="190" cy="42" r="2"/><circle cx="355" cy="84" r="3"/><circle cx="620" cy="49" r="2"/><circle cx="820" cy="95" r="2.5"/><circle cx="1030" cy="44" r="2"/><circle cx="1210" cy="72" r="3"/><circle cx="1450" cy="47" r="2"/>
 <path d="M111 157h20M121 147v20" stroke="#fff" stroke-width="3" stroke-linecap="round"/><path d="M1128 136h18M1137 127v18" stroke="#fff" stroke-width="3" stroke-linecap="round"/><path d="M1505 146h18M1514 137v18" stroke="#fff" stroke-width="3" stroke-linecap="round"/>
</g>
<g fill="#fff" opacity=".94" filter="url(#soft)">
 <ellipse cx="150" cy="245" rx="150" ry="42"/><ellipse cx="30" cy="280" rx="120" ry="50"/><ellipse cx="1490" cy="236" rx="160" ry="45"/><ellipse cx="1580" cy="285" rx="120" ry="48"/>
 <ellipse cx="230" cy="820" rx="250" ry="70"/><ellipse cx="620" cy="845" rx="310" ry="70"/><ellipse cx="1040" cy="842" rx="330" ry="78"/><ellipse cx="1450" cy="820" rx="250" ry="68"/>
</g>
<g fill="#fff" opacity=".76">
 <ellipse cx="80" cy="228" rx="87" ry="32"/><ellipse cx="145" cy="207" rx="66" ry="38"/><ellipse cx="212" cy="231" rx="92" ry="34"/>
 <ellipse cx="1395" cy="218" rx="91" ry="34"/><ellipse cx="1470" cy="194" rx="72" ry="41"/><ellipse cx="1542" cy="225" rx="96" ry="35"/>
 <ellipse cx="60" cy="790" rx="110" ry="42"/><ellipse cx="170" cy="770" rx="94" ry="47"/><ellipse cx="288" cy="803" rx="125" ry="44"/>
 <ellipse cx="1310" cy="805" rx="120" ry="44"/><ellipse cx="1435" cy="775" rx="104" ry="49"/><ellipse cx="1555" cy="808" rx="130" ry="45"/>
</g>
<path d="M0 0h1600v900H0z" fill="none" stroke="#ffffff" stroke-opacity=".38" stroke-width="8"/>
</svg>