<svg xmlns="http://www.w3.org/2000/svg" viewBox="0 0 260 150">
  <defs>
    <linearGradient id="cloud" x1="130" y1="18" x2="130" y2="129" gradientUnits="userSpaceOnUse"><stop stop-color="#FFFFFF"/><stop offset=".55" stop-color="#F4EEFF"/><stop offset="1" stop-color="#DCCEFF"/></linearGradient>
    <linearGradient id="rim" x1="40" y1="95" x2="220" y2="132" gradientUnits="userSpaceOnUse"><stop stop-color="#FFF4BB"/><stop offset=".52" stop-color="#E4B24D"/><stop offset="1" stop-color="#FFF7CE"/></linearGradient>
  </defs>
  <ellipse cx="130" cy="128" rx="92" ry="14" fill="#6650A6" opacity=".14"/>
  <path d="M38 107c-18-2-29-12-29-25 0-16 15-28 34-27C48 35 67 23 89 29c9-16 27-25 47-19 16 5 26 16 28 29 22-7 45 4 51 22 19-1 36 11 36 27 0 14-13 25-32 27H45z" fill="url(#cloud)" stroke="#FFFFFF" stroke-width="8" stroke-linejoin="round"/>
  <path d="M43 105h174c8 0 14 6 14 13v3c0 9-9 16-19 16H48c-11 0-19-7-19-16v-3c0-7 6-13 14-13Z" fill="url(#rim)" stroke="#FFFDF0" stroke-width="5"/>
  <path d="M60 113c26 7 114 7 140 0" fill="none" stroke="#C9912D" stroke-opacity=".55" stroke-width="2.5"/>
  <path d="M35 80c18-8 35-5 47 7M179 70c14-9 31-7 41 4" fill="none" stroke="#FFFFFF" stroke-width="5" stroke-linecap="round" opacity=".88"/>
</svg>
